PathFileType   4   (X/Y/Z)
DataRate	CameraRate	NumFrames	NumMarkers	Units	OrigDataRate	OrigDataStartFrame	OrigNumFrames
120.0	120.0	10	37	mm	120.0	25	194
Frame#	Time	midhip	hip_r	hip_l	knee_r	knee_l	ankle_r	ankle_l	midasis	asis_r	asis_l	psis_r	psis_l	epicondLat_r	epicondLat_l	epicondMed_r	epicondMed_l	malleolusLat_r	malleolusLat_l	malleolusMedv_r	malleolusMedv_l	neck	subclavicle_r	subclavicle_l	sternalnotch	xyphoidprocess	thighwand_r	thighwand_l	upperleg1_r	upperleg1_l	upperleg2_r	upperleg2_l	shankwand_r	shankwand_l	lowerleg1_r	lowerleg1_l	toe_r	toe_l
 	 	X1	Y1	Z1	X2	Y2	Z2	X3	Y3	Z3	X4	Y4	Z4	X5	Y5	Z5	X6	Y6	Z6	X7	Y7	Z7	X8	Y8	Z8	X9	Y9	Z9	X10	Y10	Z10	X11	Y11	Z11	X12	Y12	Z12	X13	Y13	Z13	X14	Y14	Z14	X15	Y15	Z15	X16	Y16	Z16	X17	Y17	Z17	X18	Y18	Z18	X19	Y19	Z19	X20	Y20	Z20	X21	Y21	Z21	X22	Y22	Z22	X23	Y23	Z23	X24	Y24	Z24	X25	Y25	Z25	X26	Y26	Z26	X27	Y27	Z27	X28	Y28	Z28	X29	Y29	Z29	X30	Y30	Z30	X31	Y31	Z31	X32	Y32	Z32	X33	Y33	Z33	X34	Y34	Z34	X35	Y35	Z35	X36	Y36	Z36	X37	Y37	Z37

	25	0.55000	843.670	694.363	-189.396	838.115	699.441	-123.610	836.022	701.298	-249.408	850.856	387.102	-159.828	909.577	392.972	-278.328	814.424	56.127	-171.111	733.349	127.444	-271.584	899.778	766.831	-186.571	901.385	765.404	-89.924	898.170	768.257	-283.218	752.747	799.220	-161.329	749.829	793.994	-215.436	852.146	381.339	-109.674	897.815	394.721	-326.893	847.744	385.444	-210.174	929.841	384.390	-226.482	812.211	55.231	-137.696	721.893	134.238	-303.409	808.018	69.197	-196.164	737.277	134.858	-243.235	810.528	1152.590	-190.344	890.884	1099.600	-129.653	878.626	1099.473	-259.047	877.622	1088.611	-196.215	883.403	944.797	-195.902	851.416	460.213	-21.683	1011.798	523.008	-333.602	882.612	527.664	-82.305	948.606	559.520	-259.766	894.562	447.785	-107.187	955.976	472.132	-257.140	817.792	155.008	-58.870	848.588	165.041	-332.692	824.134	213.024	-115.978	838.733	242.023	-301.366	908.577	37.020	-186.635	795.032	65.437	-294.977
	26	0.55833	847.031	694.128	-189.514	841.528	699.124	-123.629	839.469	701.030	-249.426	852.361	386.888	-160.002	918.722	393.714	-277.805	814.396	56.166	-171.439	750.502	123.167	-271.609	903.048	766.688	-186.542	904.629	765.225	-89.935	901.466	768.152	-283.149	755.914	798.760	-161.676	753.131	793.453	-215.769	853.735	381.094	-109.854	907.264	395.252	-326.450	848.832	385.399	-210.174	937.897	385.795	-225.886	812.272	55.254	-138.019	738.902	129.651	-303.447	807.824	69.206	-196.497	754.156	130.684	-243.276	813.629	1152.266	-190.264	893.301	1099.099	-129.320	881.705	1099.350	-259.034	880.631	1088.377	-196.212	885.807	944.493	-196.156	853.667	459.997	-21.838	1018.932	525.583	-332.363	884.815	527.410	-82.419	954.320	561.134	-259.037	896.316	447.538	-107.350	962.993	473.973	-256.305	818.517	154.843	-59.152	864.627	164.275	-332.441	824.912	212.939	-116.227	852.572	241.031	-301.214	908.598	37.003	-186.652	814.332	63.625	-294.875
	27	0.56667	850.421	693.836	-189.635	844.953	698.757	-123.659	842.917	700.706	-249.456	853.868	386.645	-160.214	927.604	394.447	-277.188	814.355	56.193	-171.797	767.890	118.915	-271.576	906.310	766.506	-186.532	907.874	765.010	-89.969	904.747	768.002	-283.096	759.095	798.223	-162.016	756.419	792.842	-216.100	855.353	380.815	-110.074	916.496	395.788	-325.919	850.144	385.473	-210.528	946.043	387.267	-225.140	812.339	55.263	-138.371	756.105	125.098	-303.406	807.615	69.174	-196.951	771.377	126.495	-243.217	816.616	1151.900	-190.190	894.888	1097.803	-128.657	884.778	1099.216	-259.073	883.651	1088.114	-196.233	886.957	943.818	-197.147	855.994	459.738	-22.041	1025.899	528.111	-330.959	887.027	526.856	-82.485	959.891	562.838	-258.241	898.184	447.256	-107.653	969.983	475.835	-255.360	819.294	154.643	-59.464	880.666	163.681	-332.243	825.768	212.770	-116.595	866.074	240.131	-300.799	908.605	36.989	-186.678	833.782	61.963	-294.867
	28	0.57500	853.836	693.478	-189.756	848.396	698.336	-123.699	846.368	700.322	-249.496	855.390	386.373	-160.463	936.227	395.150	-276.485	814.304	56.203	-172.170	785.476	114.728	-271.489	909.569	766.278	-186.543	911.125	764.755	-90.028	908.014	767.802	-283.058	762.287	797.607	-162.346	759.695	792.153	-216.422	857.017	380.501	-110.332	925.503	396.310	-325.307	851.874	385.296	-211.128	954.577	388.649	-224.300	812.414	55.252	-138.737	773.475	120.613	-303.295	807.453	69.075	-197.440	788.281	122.447	-242.987	819.535	1151.465	-190.158	899.302	1098.489	-129.392	887.753	1099.012	-259.110	886.670	1087.790	-196.283	892.394	944.019	-196.605	858.413	459.442	-22.288	1032.691	530.575	-329.415	889.188	525.987	-82.672	965.308	564.421	-257.370	900.245	446.827	-108.118	977.068	477.680	-254.340	820.123	154.415	-59.795	896.674	163.259	-332.082	826.673	212.528	-117.040	879.515	239.149	-300.226	908.603	36.975	-186.721	853.348	60.481	-294.943
	29	0.58333	857.272	693.053	-189.879	851.859	697.860	-123.751	849.826	699.874	-249.547	856.948	386.074	-160.742	944.594	395.804	-275.707	814.248	56.192	-172.541	803.224	110.638	-271.356	912.827	766.005	-186.576	914.386	764.460	-90.112	911.267	767.549	-283.040	765.487	796.915	-162.663	762.961	791.382	-216.730	858.747	380.157	-110.622	934.280	396.798	-324.622	850.772	385.263	-211.053	962.368	389.735	-223.532	812.495	55.223	-139.101	790.986	116.221	-303.126	807.404	68.929	-197.919	804.322	118.551	-242.595	822.544	1150.956	-190.195	902.689	1098.387	-129.714	890.723	1098.622	-259.125	889.728	1087.398	-196.383	896.120	943.766	-196.478	860.942	459.115	-22.572	1039.302	532.951	-327.765	891.515	525.317	-82.963	970.434	565.692	-256.303	901.263	446.087	-108.632	983.653	479.190	-253.225	821.000	154.167	-60.134	912.632	163.007	-331.932	827.586	212.265	-117.498	893.326	238.173	-299.947	908.602	36.960	-186.782	872.999	59.204	-295.072
	30	0.59167	860.724	692.562	-190.004	855.349	697.332	-123.815	853.292	699.362	-249.611	858.563	385.755	-161.040	952.714	396.394	-274.868	814.190	56.162	-172.890	821.099	106.675	-271.189	916.084	765.688	-186.636	917.660	764.132	-90.225	914.508	767.244	-283.047	768.690	796.147	-162.970	766.220	790.525	-217.022	860.564	379.789	-110.934	942.823	397.234	-323.873	844.330	385.920	-209.564	970.440	390.604	-222.746	812.583	55.175	-139.443	808.616	111.943	-302.916	807.489	68.729	-198.353	823.413	114.221	-242.430	825.534	1150.414	-190.256	905.629	1097.815	-129.865	893.702	1098.102	-259.166	892.808	1086.928	-196.528	899.045	943.221	-196.634	863.598	458.769	-22.884	1045.724	535.214	-326.052	894.029	524.814	-83.258	975.399	566.770	-255.182	900.188	445.056	-109.035	990.290	480.475	-252.081	821.920	153.911	-60.464	928.522	162.919	-331.771	828.582	211.963	-117.989	906.955	237.227	-299.639	908.612	36.947	-186.860	892.704	58.148	-295.216
	31	0.60000	864.195	692.017	-190.137	858.868	696.762	-123.892	856.770	698.790	-249.687	860.255	385.419	-161.345	960.594	396.911	-273.977	814.133	56.117	-173.203	839.068	102.863	-271.003	919.342	765.336	-186.726	920.949	763.782	-90.367	917.735	766.890	-283.085	771.892	795.311	-163.273	769.473	789.581	-217.302	862.487	379.404	-111.254	951.127	397.605	-323.068	845.355	385.699	-209.891	979.478	391.406	-221.771	812.676	55.116	-139.750	826.346	107.801	-302.689	807.797	68.380	-198.776	841.960	110.106	-242.235	828.353	1149.858	-190.319	908.745	1097.096	-130.070	896.618	1097.520	-259.276	895.893	1086.399	-196.710	902.112	942.572	-196.959	866.390	458.417	-23.212	1051.952	537.335	-324.320	896.568	524.294	-83.590	980.346	567.699	-254.126	902.231	444.180	-109.721	997.353	481.709	-250.920	822.875	153.660	-60.771	944.332	162.995	-331.575	829.579	211.596	-118.454	920.075	236.273	-298.863	908.642	36.937	-186.949	912.435	57.328	-295.330
	32	0.60833	867.688	691.429	-190.281	862.418	696.162	-123.982	860.262	698.165	-249.776	862.042	385.075	-161.641	968.245	397.351	-273.045	814.081	56.065	-173.467	857.099	99.224	-270.815	922.601	764.961	-186.849	924.252	763.428	-90.542	920.950	766.495	-283.157	775.092	794.414	-163.580	772.722	788.556	-217.576	864.530	379.010	-111.568	959.185	397.902	-322.214	847.927	385.347	-210.515	987.720	392.214	-220.704	812.772	55.053	-140.008	844.156	103.813	-302.464	808.366	67.968	-199.166	860.103	106.311	-242.018	831.145	1149.241	-190.447	911.933	1096.270	-130.310	899.541	1096.873	-259.509	898.869	1085.772	-196.899	905.244	941.840	-197.416	869.326	458.068	-23.543	1057.980	539.288	-322.616	899.202	523.875	-84.028	985.224	568.507	-253.086	904.986	443.637	-110.423	1003.981	482.844	-249.718	823.860	153.424	-61.040	960.049	163.237	-331.326	830.620	211.243	-118.815	933.005	235.401	-297.832	908.698	36.931	-187.040	932.160	56.759	-295.381
	33	0.61667	871.210	690.816	-190.436	866.000	695.546	-124.084	863.770	697.495	-249.878	863.934	384.726	-161.916	975.673	397.714	-272.074	814.038	56.012	-173.675	875.164	95.778	-270.641	925.860	764.576	-187.007	927.566	763.084	-90.749	924.154	766.067	-283.265	778.291	793.465	-163.901	775.968	787.457	-217.854	866.700	378.615	-111.863	966.991	398.119	-321.313	852.660	384.986	-211.627	994.954	392.953	-219.656	812.872	54.991	-140.211	862.030	100.000	-302.262	808.489	67.824	-199.487	877.546	103.012	-241.778	834.037	1148.557	-190.643	914.938	1095.509	-130.519	902.454	1096.220	-259.771	901.792	1085.103	-197.104	908.226	941.135	-197.784	872.404	457.733	-23.866	1063.801	541.050	-320.982	901.994	523.652	-84.456	989.911	569.194	-251.995	908.727	443.477	-111.132	1010.011	483.853	-248.491	824.867	153.214	-61.263	975.663	163.652	-331.012	831.808	210.980	-119.066	946.020	234.605	-297.057	908.780	36.933	-187.122	951.847	56.455	-295.347
	34	0.62500	874.762	690.192	-190.603	869.613	694.926	-124.197	867.299	696.790	-249.990	865.932	384.375	-162.163	982.887	398.003	-271.069	814.006	55.964	-173.825	893.236	92.544	-270.493	929.121	764.189	-187.197	930.891	762.764	-90.986	927.351	765.615	-283.408	781.492	792.476	-164.242	779.217	786.295	-218.147	868.996	378.222	-112.133	974.540	398.252	-320.366	856.449	384.947	-212.491	1001.660	393.582	-218.653	812.976	54.939	-140.357	879.947	96.384	-302.098	808.209	67.889	-199.733	893.983	100.220	-241.487	836.906	1147.805	-190.826	917.763	1094.877	-130.720	905.251	1095.573	-259.985	904.677	1084.417	-197.319	911.139	940.495	-197.982	875.618	457.414	-24.175	1069.413	542.601	-319.455	904.907	523.480	-84.767	994.531	569.759	-250.917	912.153	443.348	-111.788	1015.733	484.702	-247.309	825.892	153.034	-61.435	991.160	164.250	-330.629	832.921	210.793	-119.214	958.983	233.892	-296.506	908.883	36.939	-187.189	971.462	56.429	-295.222
